<svg width="48" height="26" viewBox="0 0 48 26" fill="none" xmlns="http://www.w3.org/2000/svg">
<g clip-path="url(#clip0_996_2)">
<path d="M24.62 24.63L46.06 3.2C46.3006 2.95826 46.4357 2.63107 46.4357 2.29C46.4357 1.94893 46.3006 1.62174 46.06 1.38C45.9417 1.25844 45.8002 1.16182 45.6439 1.09585C45.4876 1.02988 45.3196 0.99589 45.15 0.99589C44.9804 0.99589 44.8124 1.02988 44.6561 1.09585C44.4998 1.16182 44.3583 1.25844 44.24 1.38L23.72 21.9L3.2 1.38C3.02022 1.20104 2.79166 1.07905 2.54291 1.0293C2.29417 0.979554 2.03627 1.00425 1.80149 1.1003C1.5667 1.19635 1.36544 1.35949 1.22289 1.56931C1.08033 1.77914 1.0028 2.02634 1 2.28C0.99832 2.44952 1.03114 2.61762 1.09647 2.77406C1.16179 2.9305 1.25826 3.07201 1.38 3.19L22.81 24.62C23.0513 24.8576 23.3764 24.9907 23.715 24.9907C24.0536 24.9907 24.3787 24.8576 24.62 24.62V24.63Z" fill="#CCCCCC" stroke="#CCCCCC" stroke-width="2" stroke-miterlimit="10"/>
</g>
<defs>
<clipPath id="clip0_996_2">
<rect width="47.43" height="26" fill="white"/>
</clipPath>
</defs>
</svg>
