<?xml version="1.0" standalone="no"?>
<!DOCTYPE svg PUBLIC "-//W3C//DTD SVG 20010904//EN"
 "http://www.w3.org/TR/2001/REC-SVG-20010904/DTD/svg10.dtd">
<svg version="1.0" xmlns="http://www.w3.org/2000/svg"
 width="150.000000pt" height="150.000000pt" viewBox="0 0 150.000000 150.000000"
 preserveAspectRatio="xMidYMid meet">
<metadata>
Created by potrace 1.14, written by Peter Selinger 2001-2017
</metadata>
<g transform="translate(0.000000,150.000000) scale(0.100000,-0.100000)"
fill="#000000" stroke="none">
<path d="M250 1434 c-1 -55 -1 -1343 0 -1376 l0 -28 180 0 c137 0 180 3 181
13 0 6 1 127 2 267 l2 255 130 1 c72 1 149 4 172 7 224 32 393 338 317 577
-12 38 -33 89 -47 112 -49 84 -170 176 -253 193 -16 3 -176 9 -356 12 l-328 6
0 -39z m583 -317 c28 -18 62 -70 72 -108 10 -39 -11 -101 -48 -144 l-33 -38
-105 -1 -104 -1 -1 150 c0 83 0 152 2 156 2 3 45 5 97 4 69 -1 102 -6 120 -18z"/>
</g>
</svg>
